<svg xmlns="http://www.w3.org/2000/svg" viewBox="0 0 108.61 108.61"><defs><style>.cls-1{fill:#e3241b;}.cls-2{fill:#005073;fill-rule:evenodd;}.cls-3{fill:#fff;}</style></defs><title>principle6</title><g id="Layer_2" data-name="Layer 2"><g id="CONTENT"><circle class="cls-1" cx="54.3" cy="54.3" r="54.3"/><path class="cls-2" d="M69.24,33a45.69,45.69,0,0,0-3.58-11.51,41.1,41.1,0,0,0-5.81-9.11,21.37,21.37,0,0,0-6.36-5.52,11.12,11.12,0,0,0-7-.8,10.61,10.61,0,0,0-6.6,3.48c-1.24,1.49-2.48,4.08-3.72,7.75a45.19,45.19,0,0,0-1.91,21A41.21,41.21,0,0,0,37.79,50c2.24,4.74,5.72,8.68,7,13.84,2.17,8.86-2.22,17.15-1.91,26,.23,6.76,3.29,12.8,11,13.13,6.86.29,13.22-4.28,14.19-10.44,1-6.38-.55-12.63-.18-19,.35-6.08,2.25-12.19,3-18.27C72,46,70.14,38.25,69.24,33Z"/><path class="cls-3" d="M53.72,53.86a9.58,9.58,0,1,1,9.55-9.58A9.57,9.57,0,0,1,53.72,53.86Zm0-15.14a5.56,5.56,0,1,0,5.53,5.56A5.55,5.55,0,0,0,53.72,38.72Z"/><path class="cls-3" d="M44.48,32.18a2,2,0,0,1,0-4H50.3c1.05,0,3.23-.59,3.23-2.42s-2.18-2.42-3.23-2.42H44.48a2,2,0,1,1,0-4H50.3c3.57,0,7.25,2.41,7.25,6.44s-3.68,6.44-7.25,6.44Z"/><path class="cls-3" d="M44.48,23.31a2,2,0,1,1,0-4h5.18c.51,0,2.4-.29,2.4-1.72s-1.89-1.72-2.4-1.72H44.48a2,2,0,0,1,0-4h5.18c3.16,0,6.43,2.15,6.43,5.75s-3.27,5.75-6.43,5.75Z"/><path class="cls-3" d="M44.48,32.18a2,2,0,0,1-2-2V13.83a2,2,0,1,1,4,0V30.17A2,2,0,0,1,44.48,32.18Z"/><path class="cls-3" d="M62.08,74.67H51.4a2,2,0,0,1,0-4H62.08a2,2,0,0,1,0,4Z"/><path class="cls-3" d="M51.4,74.63a2,2,0,0,1-2-2V58.07a2,2,0,0,1,4,0V72.62A2,2,0,0,1,51.4,74.63Z"/><path class="cls-3" d="M50.89,97a2,2,0,0,1,0-4h4.93c1.64,0,4.24-1.49,4.24-5.49S57.46,82,55.83,82H50.89a2,2,0,0,1,0-4h4.94a8,8,0,0,1,5.55,2.41,10.7,10.7,0,0,1,0,14.21A8,8,0,0,1,55.83,97H50.89Z"/><path class="cls-3" d="M50.89,97a2,2,0,0,1-2-2v-15a2,2,0,0,1,4,0v15A2,2,0,0,1,50.89,97Z"/></g></g></svg>