<svg xmlns="http://www.w3.org/2000/svg" viewBox="0 0 108.61 108.61"><defs><style>.cls-1{fill:#8c8c8c;}.cls-2,.cls-4{fill:#6ebe4a;}.cls-3{fill:#fff;}.cls-4{opacity:0.5;}</style></defs><title>principle2</title><g id="Layer_2" data-name="Layer 2"><g id="CONTENT"><circle class="cls-1" cx="54.3" cy="54.3" r="54.3"/><path class="cls-2" d="M54.3,6.54A47.77,47.77,0,1,1,6.54,54.3,47.82,47.82,0,0,1,54.3,6.54M54.3,0a54.31,54.31,0,1,0,54.31,54.3A54.3,54.3,0,0,0,54.3,0Z"/><rect class="cls-2" x="3.71" y="51.04" width="101.19" height="6.54" transform="translate(-22.49 54.3) rotate(-45)"/><path class="cls-3" d="M30.32,45.45H18.72a2.77,2.77,0,0,1,0-5.53h11.6a2.77,2.77,0,1,1,0,5.53Z"/><path class="cls-3" d="M18.72,68.69a2.77,2.77,0,0,1,0-5.53h11.6a2.77,2.77,0,1,1,0,5.53Z"/><path class="cls-3" d="M30.32,57.13H18.72a2.77,2.77,0,0,1,0-5.53h11.6a2.77,2.77,0,1,1,0,5.53Z"/><path class="cls-3" d="M18.72,68.66A2.77,2.77,0,0,1,16,65.89V42.83a2.77,2.77,0,1,1,5.53,0V65.89A2.77,2.77,0,0,1,18.72,68.66Z"/><path class="cls-3" d="M51.41,69c-7.29,0-13.23-6.6-13.23-14.72s5.94-14.71,13.23-14.71a12.27,12.27,0,0,1,8.08,3,2.77,2.77,0,1,1-3.6,4.2,6.85,6.85,0,0,0-4.48-1.72c-4.24,0-7.7,4.12-7.7,9.18s3.46,9.19,7.7,9.19c3.44,0,6.36-2.7,7.35-6.42H54.64a2.77,2.77,0,1,1,0-5.53h7.24a2.76,2.76,0,0,1,2.76,2.76C64.64,62.42,58.71,69,51.41,69Z"/><path class="cls-3" d="M83,68.94c-7.38,0-13.39-6.57-13.39-14.64s6-14.63,13.39-14.63,13.4,6.56,13.4,14.63S90.42,68.94,83,68.94ZM83,45.2c-4.33,0-7.86,4.08-7.86,9.1S78.7,63.41,83,63.41s7.87-4.09,7.87-9.11S87.37,45.2,83,45.2Z"/><rect class="cls-4" x="3.71" y="51.04" width="101.19" height="6.54" transform="translate(-22.49 54.3) rotate(-45)"/></g></g></svg>