<svg xmlns="http://www.w3.org/2000/svg" viewBox="0 0 108.61 108.61"><defs><style>.cls-1{fill:#00bceb;}.cls-2{fill:#005073;}.cls-3{fill:none;}.cls-4{fill:#fff;}</style></defs><title>principle1</title><g id="Layer_2" data-name="Layer 2"><g id="CONTENT"><circle class="cls-1" cx="54.3" cy="54.3" r="54.3"/><path class="cls-2" d="M80.1,74.68l-9.66,9.66H42.66a2.45,2.45,0,0,1-2.45-2.45v-.37a2.45,2.45,0,0,1,2.45-2.45H57.78a3.91,3.91,0,0,0,3.87-3.9h0a3.91,3.91,0,0,0-3.9-3.9H34.58a3.45,3.45,0,0,0-.57,0,4.19,4.19,0,0,0-3.57,1.18L13.18,89.77a54.59,54.59,0,0,0,15,12.15L34.05,96H66.84a5.84,5.84,0,0,0,.73-.05,3.86,3.86,0,0,0,3.34-1.1l14.7-14.7a3.9,3.9,0,0,0-5.51-5.51Z"/><circle class="cls-3" cx="54.3" cy="54.3" r="54.3"/><path class="cls-4" d="M77.23,34l.06-.08,0-.06a.41.41,0,0,0,0-.09.25.25,0,0,0,0-.07.59.59,0,0,0,0-.08.36.36,0,0,1,0-.09.24.24,0,0,1,0-.08l0-.09s0,0,0-.08,0-.06,0-.09,0,0,0-.08V33a.31.31,0,0,0,0-.1v-.07a.41.41,0,0,0,0-.11.25.25,0,0,0,0-.08.28.28,0,0,0,0-.09s0-.06,0-.08a.29.29,0,0,0,0-.09l0-.09,0-.08,0-.09a.25.25,0,0,1,0-.07l0-.09a.21.21,0,0,0,0-.06l-.06-.09,0,0v0l-.07-.08-.06-.06L77,31.53,77,31.47l-.06,0-.08-.06-.06,0-.09-.05-.08,0-.07,0-.1,0-.06,0-.11,0h-.06l-.1,0H60.91L56,16.82v0a1,1,0,0,0,0-.1l0-.07a.59.59,0,0,0,0-.08.56.56,0,0,0,0-.08l0-.07a.56.56,0,0,1-.05-.08l0-.05-.06-.08-.06-.06-.07-.07L55.45,16,55.39,16l-.08,0-.07-.05-.07,0-.09,0-.06,0-.11,0h-.06l-.11,0-.07,0-.1,0H54l-.1,0-.07,0-.11,0h-.07l-.09,0-.07,0-.08,0-.08,0-.07.05-.08,0-.06.05-.07.06a.46.46,0,0,0-.07.07l-.06.06-.06.08,0,.05-.06.09a.21.21,0,0,1,0,.06,5244976515749.32,5244976515749.32,0,0,1-.08.16l0,.07a.3.3,0,0,0,0,.1v0L47.7,31H32.51l-.09,0-.07,0-.1,0-.07,0-.09,0-.08,0-.08,0-.08.05-.06,0-.09.06-.05,0-.08.06-.06.06-.05.06-.07.08,0,0s0,0,0,0l-.06.09a.21.21,0,0,0,0,.06.41.41,0,0,0-.05.09l0,.07,0,.09a.13.13,0,0,0,0,.08l0,.09a.29.29,0,0,0,0,.09.19.19,0,0,0,0,.08s0,.06,0,.09a.19.19,0,0,1,0,.08V33a.28.28,0,0,1,0,.09s0,0,0,.08,0,.06,0,.09,0,0,0,.08l0,.09a.24.24,0,0,0,0,.08.36.36,0,0,0,0,.09l0,.08a.25.25,0,0,1,0,.07.41.41,0,0,1,.05.09l.05.06a.35.35,0,0,0,.05.08l.05.06.06.07.07.06.05.06.08.06,0,0,11.91,9.18L39.28,57.76v0a.36.36,0,0,0,0,.1.24.24,0,0,0,0,.08.28.28,0,0,0,0,.09s0,.06,0,.09v.24a.45.45,0,0,0,0,.11s0,.06,0,.1a.15.15,0,0,1,0,.07s0,.08,0,.12a.09.09,0,0,0,0,0s0,.07,0,.11,0,0,0,.05l0,.09a.16.16,0,0,0,0,.07.16.16,0,0,0,0,.07l.05.09h0l0,0,.09.13.05.05.1.1.05,0,.16.12h0a.83.83,0,0,0,.16.09l.06,0,.12.06.08,0,.05,0h0l.16,0h.08l.21,0h.08l.23,0,.09,0,.18-.05.1,0,.16-.06.12-.07.11-.06L54.3,51.25l12.25,8.53.11.06.12.07.15.06L67,60l.17.05.1,0,.23,0h.08l.21,0h.08l.16,0h0l.06,0,.08,0,.12-.06.06,0,.16-.09h0l.16-.12,0,0,.1-.1,0-.05.09-.12,0,0h0a.22.22,0,0,1,0-.08l0-.08,0-.06.05-.1s0,0,0,0,0-.08,0-.12v0l0-.13a.17.17,0,0,0,0-.07.36.36,0,0,0,0-.1.37.37,0,0,1,0-.11V58.2a.13.13,0,0,0,0-.06.28.28,0,0,0,0-.09s0-.06,0-.09,0-.05,0-.08,0-.07,0-.1v0L65,43.47l11.9-9.18,0,0,.08-.06.06-.06.06-.06.07-.07Z"/></g></g></svg>