<svg xmlns="http://www.w3.org/2000/svg" viewBox="0 0 108.61 108.61"><defs><style>.cls-1{fill:#fbab18;}.cls-2{fill:none;}.cls-3{fill:#005073;}.cls-4{fill:#fff;}</style></defs><title>principle3</title><g id="Layer_2" data-name="Layer 2"><g id="CONTENT"><circle class="cls-1" cx="54.3" cy="54.3" r="54.3"/><line class="cls-2" x1="51.44" y1="73.58" x2="57.17" y2="73.58"/><path class="cls-3" d="M96.66,36.54,94.36,31a3.84,3.84,0,0,0-.45-.79,11.32,11.32,0,0,0-14.1-4.73L64.7,31.74A11.32,11.32,0,0,0,58.06,45a3.75,3.75,0,0,0,.24.9l.27.63h0L66.2,65l2.67,6.43.83,2a3.56,3.56,0,1,0,6.58-2.72l-3.5-8.46a.25.25,0,0,0,0-.07l-2.3-5.58a.66.66,0,0,1,.36-.87.67.67,0,0,1,.87.36l3.55,8.58s0,.09,0,.13l3.73,9a3.26,3.26,0,0,0,6-2.49l-3.74-9,0-.1-3.56-8.6a.67.67,0,0,1,.36-.87.66.66,0,0,1,.87.36l4.77,11.52,0,.06,4,9.61a3,3,0,0,0,3.84,1.59l.51-.21a2.94,2.94,0,0,0,1.59-3.84l0-.07a0,0,0,0,0,0,0l-8.74-21.1a.67.67,0,1,1,1.23-.51l3.46,8.35c0,.12.08.25.13.37l3.73,9a3.26,3.26,0,0,0,6-2.49l-3.74-9a2.26,2.26,0,0,0-.17-.35L88.27,38.52a.67.67,0,0,1,.36-.87.66.66,0,0,1,.87.36L90,39.24c0,.11.07.21.11.31l3.47,8.38a3.6,3.6,0,0,0,6.65-2.76l-3.47-8.38A2.72,2.72,0,0,0,96.66,36.54Z"/><path class="cls-3" d="M12,36.54,14.25,31a4.33,4.33,0,0,1,.44-.79A11.34,11.34,0,0,1,28.8,25.48l15.11,6.26A11.32,11.32,0,0,1,50.55,45a3.37,3.37,0,0,1-.25.9l-.26.63h0L42.4,65l-2.66,6.43-.84,2a3.56,3.56,0,1,1-6.57-2.72l3.5-8.46,0-.07,2.31-5.58a.67.67,0,0,0-1.23-.51l-3.55,8.58s0,.09,0,.13l-3.73,9a3.26,3.26,0,0,1-6-2.49l3.74-9,0-.1,3.57-8.6a.67.67,0,0,0-.36-.87.66.66,0,0,0-.87.36L24.93,64.62a.14.14,0,0,1,0,.06l-4,9.61a3,3,0,0,1-3.84,1.59l-.5-.21A2.94,2.94,0,0,1,15,71.83l0-.07a0,0,0,0,1,0,0l8.74-21.1a.67.67,0,0,0-1.24-.51l-3.45,8.35c0,.12-.08.25-.13.37l-3.73,9a3.26,3.26,0,0,1-6-2.49l3.74-9a3.73,3.73,0,0,1,.16-.35l7.25-17.48a.67.67,0,0,0-.36-.87.66.66,0,0,0-.87.36l-.52,1.23a2.81,2.81,0,0,1-.1.31L15,47.93a3.6,3.6,0,0,1-6.65-2.76l3.47-8.38Z"/><path class="cls-4" d="M54.3,77.65s-13-10.12-15.57-12.72c-6.81-6.82-3.84-20.24,6.21-20.24,7.35,0,9.36,5.34,9.36,5.34s2-5.34,9.37-5.34c10,0,13,13.42,6.21,20.24C67.27,67.53,54.3,77.65,54.3,77.65Z"/></g></g></svg>