<svg xmlns="http://www.w3.org/2000/svg" viewBox="0 0 108.61 108.61"><defs><style>.cls-1{fill:#6ebe4a;}.cls-2{fill:#005073;}.cls-3{fill:#fff;}.cls-4{fill:#fbab18;}</style></defs><title>principle5</title><g id="Layer_2" data-name="Layer 2"><g id="CONTENT"><circle class="cls-1" cx="54.3" cy="54.3" r="54.3"/><rect class="cls-2" x="25.98" y="38.81" width="30.5" height="48.07" rx="7.77"/><path class="cls-2" d="M32.05,23.9a9.18,9.18,0,1,1,9.18,9.18A9.18,9.18,0,0,1,32.05,23.9Z"/><rect class="cls-3" x="52.13" y="38.81" width="30.5" height="48.07" rx="7.77"/><path class="cls-3" d="M58.2,23.9a9.18,9.18,0,1,1,9.18,9.18A9.18,9.18,0,0,1,58.2,23.9Z"/><path class="cls-4" d="M54.3,77S43.1,68.28,40.84,66C35,60.13,37.52,48.53,46.21,48.53c6.35,0,8.09,4.62,8.09,4.62s1.74-4.62,8.1-4.62c8.68,0,11.26,11.6,5.37,17.49C65.51,68.28,54.3,77,54.3,77Z"/></g></g></svg>