<svg xmlns="http://www.w3.org/2000/svg" viewBox="0 0 108.61 108.61"><defs><style>.cls-1{fill:#005073;}.cls-2{fill:#fbab18;}.cls-3{fill:#00bceb;}.cls-4{fill:none;}.cls-5{fill:#fff;}</style></defs><title>principle4</title><g id="Layer_2" data-name="Layer 2"><g id="CONTENT"><circle class="cls-1" cx="54.3" cy="54.3" r="54.3"/><circle class="cls-2" cx="54.3" cy="41.43" r="11.12"/><rect class="cls-2" x="29.08" y="27.95" width="13.89" height="65.24" rx="6.94" transform="translate(-20.43 18.39) rotate(-22.5)"/><rect class="cls-2" x="63.3" y="58.17" width="13.89" height="38.4" rx="6.94" transform="translate(-24.26 32.77) rotate(-22.5)"/><path class="cls-3" d="M65.6,59.11H43a7.13,7.13,0,0,0-7.11,7.11v39.19a54.53,54.53,0,0,0,36.81,0V66.22A7.13,7.13,0,0,0,65.6,59.11Z"/><circle class="cls-4" cx="54.3" cy="54.3" r="54.3"/><path class="cls-5" d="M55.21,19.26a2,2,0,0,1-2-2v-4a2,2,0,0,1,4,0v4A2,2,0,0,1,55.21,19.26Z"/><path class="cls-5" d="M39.93,25.24a2,2,0,0,1-1.43-.59l-2.8-2.8A2,2,0,0,1,38.54,19l2.81,2.81a2,2,0,0,1,0,2.84A2,2,0,0,1,39.93,25.24Z"/><path class="cls-5" d="M68.68,25.24a2,2,0,0,1-1.42-.59,2,2,0,0,1,0-2.84L70.07,19a2,2,0,0,1,2.84,2.85l-2.81,2.8A2,2,0,0,1,68.68,25.24Z"/></g></g></svg>